<svg width="80" height="80" viewBox="0 0 80 80" fill="none" xmlns="http://www.w3.org/2000/svg">
<path d="M40.5657 77.9814C40.3523 78.2049 40.1631 78.4017 40 78.5703C39.8369 78.4017 39.6477 78.2049 39.4343 77.9814C38.6199 77.1282 37.4547 75.8854 36.0558 74.331C33.2569 71.2212 29.5273 66.8697 25.8 61.9C22.0703 56.9271 18.358 51.355 15.5819 45.8028C12.7977 40.2344 11 34.7734 11 30C11 14.5523 24.5523 1 40 1C55.4477 1 69 14.5523 69 30C69 34.7734 67.2023 40.2344 64.4181 45.8028C61.642 51.355 57.9297 56.9271 54.2 61.9C50.4727 66.8697 46.7431 71.2212 43.9442 74.331C42.5453 75.8854 41.3801 77.1282 40.5657 77.9814Z" fill="#FF5733" stroke="white" stroke-width="2"/>
<g clip-path="url(#clip0_52_585)">
<path d="M26.6428 35.6426V46.5712C26.6428 46.8932 26.7708 47.2021 26.9985 47.4298C27.2262 47.6575 27.5351 47.7854 27.8571 47.7854H52.1428C52.4649 47.7854 52.7737 47.6575 53.0015 47.4298C53.2292 47.2021 53.3571 46.8932 53.3571 46.5712V35.6426" stroke="white" stroke-width="2" stroke-linecap="round" stroke-linejoin="round"/>
<path d="M42.4285 35.6426V47.7854" stroke="white" stroke-width="2" stroke-linecap="round" stroke-linejoin="round"/>
<path d="M26.6428 39.2852H42.4285" stroke="white" stroke-width="2" stroke-linecap="round" stroke-linejoin="round"/>
<path d="M24.2141 24.7139L27.857 16.2139H52.1427L55.7855 24.7139H24.2141Z" stroke="white" stroke-width="2" stroke-linecap="round" stroke-linejoin="round"/>
<path d="M34.5356 24.7139V27.1424C34.5356 28.4306 34.0239 29.6661 33.113 30.577C32.2021 31.4878 30.9667 31.9996 29.6785 31.9996H28.9985C27.7103 31.9996 26.4749 31.4878 25.564 30.577C24.6531 29.6661 24.1414 28.4306 24.1414 27.1424V24.7139" stroke="white" stroke-width="2" stroke-linecap="round" stroke-linejoin="round"/>
<path d="M45.4642 24.7139V27.1424C45.4642 28.4306 44.9525 29.6661 44.0416 30.577C43.1307 31.4878 41.8953 31.9996 40.6071 31.9996H39.3928C38.1046 31.9996 36.8692 31.4878 35.9583 30.577C35.0474 29.6661 34.5356 28.4306 34.5356 27.1424V24.7139" stroke="white" stroke-width="2" stroke-linecap="round" stroke-linejoin="round"/>
<path d="M55.7855 24.7139V27.1424C55.7855 28.4306 55.2738 29.6661 54.3629 30.577C53.452 31.4878 52.2166 31.9996 50.9284 31.9996H50.3213C49.0331 31.9996 47.7976 31.4878 46.8867 30.577C45.9758 29.6661 45.4641 28.4306 45.4641 27.1424V24.7139" stroke="white" stroke-width="2" stroke-linecap="round" stroke-linejoin="round"/>
</g>
<defs>
<clipPath id="clip0_52_585">
<rect width="34" height="34" fill="white" transform="translate(23 15)"/>
</clipPath>
</defs>
</svg>
