<svg width="30" height="30" viewBox="0 0 30 30" fill="none" xmlns="http://www.w3.org/2000/svg">
<path d="M3.59998 8.4502C3.59998 7.75984 4.15962 7.2002 4.84998 7.2002H24.85C25.5403 7.2002 26.1 7.75984 26.1 8.4502C26.1 9.14055 25.5403 9.7002 24.85 9.7002H4.84998C4.15962 9.7002 3.59998 9.14055 3.59998 8.4502ZM3.59998 14.7002C3.59998 14.0098 4.15962 13.4502 4.84998 13.4502H24.85C25.5403 13.4502 26.1 14.0098 26.1 14.7002C26.1 15.3906 25.5403 15.9502 24.85 15.9502H4.84998C4.15962 15.9502 3.59998 15.3906 3.59998 14.7002ZM3.59998 20.9502C3.59998 20.2598 4.15962 19.7002 4.84998 19.7002H24.85C25.5403 19.7002 26.1 20.2598 26.1 20.9502C26.1 21.6406 25.5403 22.2002 24.85 22.2002H4.84998C4.15962 22.2002 3.59998 21.6406 3.59998 20.9502Z" fill="black"/>
</svg>
